# xmcd
# Track frame offsets:
# 150
# 13105
# 24617
# 36510
# 47302
# 59667
# 71780
# 83372
# 94220
# 104950
# 117890
# 128880
# 140990
# 155500
# 165625
# 179310
# 192245
# 204972
# 216355
# 228735
# 241142
# 251867
# 262762
# 272975
# 283612
# 293785
# 303837
# 312435
# 326302
# 334767
#
# Disc length: 4580 seconds
# Revision: 0
# Processed by: cddbd v1.4PL0 Copyright (c) Steve Scherf et al.
# Submitted via: VisiTrax 2.9.5.180 - For more info visit www.synapsa.com
#
DISCID=c711e21e
DTITLE=Carl Perkins - Country Boy큦 Dream (The Dollie Masters )
DYEAR=1991
DGENRE=
TTITLE0=Country Boy큦 Dream
TTITLE1=If I Could Come Back
TTITLE2=Home ( That큦 Where The Heart Is )
TTITLE3=The Star Of The Show
TTITLE4=Poor Boy Blues
TTITLE5=Detroit City
TTITLE6=Dream On Little Dreamer
TTITLE7=Stateside
TTITLE8=Sweet Misery
TTITLE9=Unmitigated Gal
TTITLE10=Shine,Shine,Shine
TTITLE11=Without You
TTITLE12=You Can Take The Boy Out Of The Country
TTITLE13=Almost Love
TTITLE14=An Old Fashioned Sing-A-Long
TTITLE15=Old Number One
TTITLE16=My Old Home Town
TTITLE17=Back To Tennessee
TTITLE18=It큦 You
TTITLE19=I큞l Go Wrong Again
TTITLE20=Dear Abby
TTITLE21=Lake County Cotten Country
TTITLE22=All You큞l Need To Know
TTITLE23=Quite Like Youy
TTITLE24=Just As Long (pop Mix )
TTITLE25=Just As Long ( Country Mix )
TTITLE26=Baby I큟 Hung Up On You
TTITLE27=Tom And Mary Jane
TTITLE28=Mama And Daddy
TTITLE29=Valda
EXTD=
EXTT0=
EXTT1=
EXTT2=
EXTT3=
EXTT4=
EXTT5=
EXTT6=
EXTT7=
EXTT8=
EXTT9=
EXTT10=
EXTT11=
EXTT12=
EXTT13=
EXTT14=
EXTT15=
EXTT16=
EXTT17=
EXTT18=
EXTT19=
EXTT20=
EXTT21=
EXTT22=
EXTT23=
EXTT24=
EXTT25=
EXTT26=
EXTT27=
EXTT28=
EXTT29=
PLAYORDER=
